<?xml version="1.0" standalone="no"?>
<!DOCTYPE svg PUBLIC "-//W3C//DTD SVG 20010904//EN"
 "http://www.w3.org/TR/2001/REC-SVG-20010904/DTD/svg10.dtd">
<svg version="1.0" xmlns="http://www.w3.org/2000/svg"
 width="260.000000pt" height="260.000000pt" viewBox="0 0 260.000000 260.000000"
 preserveAspectRatio="xMidYMid meet">
<metadata>
Created by potrace 1.11, written by Peter Selinger 2001-2013
</metadata>
<g transform="translate(0.000000,260.000000) scale(0.100000,-0.100000)"
fill="#000000" stroke="none">
<path d="M0 1300 l0 -1300 1300 0 1300 0 0 1300 0 1300 -1300 0 -1300 0 0
-1300z m2158 -338 c14 -25 50 -42 88 -42 19 0 24 -5 24 -25 l0 -25 -120 0
-120 0 0 56 0 57 -52 -50 c-65 -60 -118 -78 -221 -71 -263 17 -412 310 -287
565 94 192 350 256 503 127 21 -17 33 -22 35 -14 3 7 1 86 -3 177 -8 193 -11
197 -100 208 -49 7 -56 10 -53 28 3 18 19 24 143 46 l140 26 5 -520 c4 -403 8
-525 18 -543z m-1153 656 c258 -649 274 -679 355 -693 34 -6 40 -11 40 -31 l0
-24 -225 0 -225 0 0 24 c0 21 6 25 48 31 26 4 53 12 60 17 23 19 13 91 -30
206 l-41 112 -185 -2 -185 -3 -33 -85 c-49 -125 -60 -185 -40 -215 11 -17 29
-27 56 -31 34 -6 40 -10 40 -30 l0 -24 -170 0 -170 0 0 25 c0 20 7 26 42 35
22 7 53 24 68 38 19 19 81 165 214 500 l188 472 32 0 32 0 129 -322z"/>
<path d="M1715 1537 c-37 -17 -80 -66 -102 -116 -10 -23 -17 -77 -21 -152 -7
-181 31 -285 123 -329 59 -29 133 -22 197 19 71 45 82 79 86 261 4 163 -3 209
-39 254 -47 59 -178 93 -244 63z"/>
<path d="M727 1528 c-42 -105 -75 -193 -73 -195 2 -2 71 -2 153 -1 l150 3 -71
187 c-40 103 -74 190 -77 193 -3 2 -40 -82 -82 -187z"/>
</g>
</svg>
